<svg xmlns="http://www.w3.org/2000/svg" width="8.044" height="11.166" viewBox="0 0 8.044 11.166"><defs><style>.a{fill:#fff;}</style></defs><path class="a" d="M55.146,1.252v9.17l-2.09-1.414C53.038,9,53.02,8.984,53,8.972a1.965,1.965,0,0,0-.98-.261,1.994,1.994,0,0,0-.98.261.475.475,0,0,0-.056.036l-2.09,1.414V1.252Zm.23-.893H48.663A.679.679,0,0,0,48,1.051v9.779a.68.68,0,0,0,.666.695.626.626,0,0,0,.319-.087l2.5-1.691a1.076,1.076,0,0,1,1.072,0l2.5,1.691a.626.626,0,0,0,.319.087.68.68,0,0,0,.666-.695V1.054A.686.686,0,0,0,55.376.359Z" transform="translate(-48 -0.359)"/></svg>